<?xml version="1.0" encoding="UTF-8" standalone="no"?>
<!-- Created with Inkscape (http://www.inkscape.org/) -->
<svg
   xmlns:dc="http://purl.org/dc/elements/1.1/"
   xmlns:cc="http://creativecommons.org/ns#"
   xmlns:rdf="http://www.w3.org/1999/02/22-rdf-syntax-ns#"
   xmlns:svg="http://www.w3.org/2000/svg"
   xmlns="http://www.w3.org/2000/svg"
   xmlns:sodipodi="http://sodipodi.sourceforge.net/DTD/sodipodi-0.dtd"
   xmlns:inkscape="http://www.inkscape.org/namespaces/inkscape"
   width="728"
   height="180"
   id="svg2"
   sodipodi:version="0.32"
   inkscape:version="0.46"
   version="1.0"
   sodipodi:docname="solarvie.svg"
   inkscape:output_extension="org.inkscape.output.svg.inkscape">
  <defs
     id="defs4">
    <marker
       inkscape:stockid="Arrow1Lend"
       orient="auto"
       refY="0"
       refX="0"
       id="Arrow1Lend"
       style="overflow:visible">
      <path
         id="path3781"
         d="M 0,0 L 5,-5 L -12.5,0 L 5,5 L 0,0 z"
         style="fill-rule:evenodd;stroke:#000000;stroke-width:1pt;marker-start:none"
         transform="matrix(-0.8,0,0,-0.8,-10,0)" />
    </marker>
    <marker
       inkscape:stockid="Arrow1Lstart"
       orient="auto"
       refY="0"
       refX="0"
       id="Arrow1Lstart"
       style="overflow:visible">
      <path
         id="path3778"
         d="M 0,0 L 5,-5 L -12.5,0 L 5,5 L 0,0 z"
         style="fill-rule:evenodd;stroke:#000000;stroke-width:1pt;marker-start:none"
         transform="matrix(0.8,0,0,0.8,10,0)" />
    </marker>
    <inkscape:perspective
       sodipodi:type="inkscape:persp3d"
       inkscape:vp_x="0 : 526.18109 : 1"
       inkscape:vp_y="0 : 1000 : 0"
       inkscape:vp_z="744.09448 : 526.18109 : 1"
       inkscape:persp3d-origin="372.04724 : 350.78739 : 1"
       id="perspective10" />
    <inkscape:perspective
       id="perspective2390"
       inkscape:persp3d-origin="372.04724 : 350.78739 : 1"
       inkscape:vp_z="744.09448 : 526.18109 : 1"
       inkscape:vp_y="0 : 1000 : 0"
       inkscape:vp_x="0 : 526.18109 : 1"
       sodipodi:type="inkscape:persp3d" />
    <filter
       inkscape:collect="always"
       id="filter3737"
       x="-0.21266425"
       width="1.4253285"
       y="-0.15603392"
       height="1.3120677">
      <feGaussianBlur
         inkscape:collect="always"
         stdDeviation="4.2655344"
         id="feGaussianBlur3739" />
    </filter>
    <filter
       inkscape:collect="always"
       id="filter3763"
       x="-0.12"
       width="1.24"
       y="-0.12"
       height="1.24">
      <feGaussianBlur
         inkscape:collect="always"
         stdDeviation="1.25"
         id="feGaussianBlur3765" />
    </filter>
    <filter
       inkscape:collect="always"
       id="filter6680"
       x="-0.18000001"
       width="1.36"
       y="-0.18000001"
       height="1.36">
      <feGaussianBlur
         inkscape:collect="always"
         stdDeviation="1.8145161"
         id="feGaussianBlur6682" />
    </filter>
    <filter
       inkscape:collect="always"
       id="filter6684">
      <feGaussianBlur
         inkscape:collect="always"
         stdDeviation="0.93223141"
         id="feGaussianBlur6686" />
    </filter>
    <filter
       inkscape:collect="always"
       id="filter6752">
      <feGaussianBlur
         inkscape:collect="always"
         stdDeviation="0.77692308"
         id="feGaussianBlur6754" />
    </filter>
    <filter
       inkscape:collect="always"
       id="filter6760">
      <feGaussianBlur
         inkscape:collect="always"
         stdDeviation="0.52473958"
         id="feGaussianBlur6762" />
    </filter>
    <filter
       inkscape:collect="always"
       id="filter6795"
       x="-0.16402614"
       width="1.3280523"
       y="-0.13818369"
       height="1.2763674">
      <feGaussianBlur
         inkscape:collect="always"
         stdDeviation="1.3674202"
         id="feGaussianBlur6797" />
    </filter>
    <filter
       inkscape:collect="always"
       id="filter6869"
       x="-0.26492864"
       width="1.5298573"
       y="-0.22121421"
       height="1.4424284">
      <feGaussianBlur
         inkscape:collect="always"
         stdDeviation="2.1039953"
         id="feGaussianBlur6871" />
    </filter>
    <filter
       inkscape:collect="always"
       id="filter6925">
      <feGaussianBlur
         inkscape:collect="always"
         stdDeviation="1.6263967"
         id="feGaussianBlur6927" />
    </filter>
    <filter
       inkscape:collect="always"
       id="filter6983">
      <feGaussianBlur
         inkscape:collect="always"
         stdDeviation="0.98333801"
         id="feGaussianBlur6985" />
    </filter>
    <filter
       inkscape:collect="always"
       id="filter8449"
       x="-0.42"
       width="1.84"
       y="-0.42"
       height="1.84">
      <feGaussianBlur
         inkscape:collect="always"
         stdDeviation="3.5"
         id="feGaussianBlur8451" />
    </filter>
  </defs>
  <sodipodi:namedview
     id="base"
     pagecolor="#000000"
     bordercolor="#666666"
     borderopacity="1.0"
     gridtolerance="10000"
     guidetolerance="10"
     objecttolerance="10"
     inkscape:pageopacity="0"
     inkscape:pageshadow="2"
     inkscape:zoom="1"
     inkscape:cx="323.92329"
     inkscape:cy="69.680689"
     inkscape:document-units="px"
     inkscape:current-layer="layer1"
     showgrid="false"
     width="100px"
     showguides="true"
     inkscape:snap-guide="false"
     inkscape:guide-bbox="true"
     inkscape:window-width="879"
     inkscape:window-height="718"
     inkscape:window-x="-8"
     inkscape:window-y="22" />
  <metadata
     id="metadata7">
    <rdf:RDF>
      <cc:Work
         rdf:about="">
        <dc:format>image/svg+xml</dc:format>
        <dc:type
           rdf:resource="http://purl.org/dc/dcmitype/StillImage" />
      </cc:Work>
    </rdf:RDF>
  </metadata>
  <g
     inkscape:label="Layer 1"
     inkscape:groupmode="layer"
     id="layer1">
    <rect
       style="opacity:1;fill:#000000;fill-opacity:1;stroke:none;stroke-width:1.50000000000000000;stroke-linecap:butt;stroke-miterlimit:4;stroke-dasharray:18, 18;stroke-dashoffset:0;stroke-opacity:1"
       id="rect8453"
       width="727"
       height="180"
       x="0"
       y="0" />
    <text
       xml:space="preserve"
       style="font-size:40px;font-style:normal;font-variant:normal;font-weight:normal;font-stretch:normal;fill:#ffffff;fill-opacity:1;stroke:none;stroke-width:1px;stroke-linecap:butt;stroke-linejoin:miter;stroke-opacity:1;font-family:Denemo;-inkscape-font-specification:Denemo"
       x="10"
       y="33"
       id="text2396"><tspan
         sodipodi:role="line"
         id="tspan2398"
         x="10"
         y="33"
         style="font-size:24px;font-style:normal;font-variant:normal;font-weight:normal;font-stretch:normal;fill:#ffffff;font-family:Arial;-inkscape-font-specification:Arial">Life Cycle of the Sun</tspan></text>
    <path
       style="fill:#ffffff;fill-rule:evenodd;stroke:#ffffff;stroke-width:1.5;stroke-linecap:butt;stroke-linejoin:miter;stroke-miterlimit:4;stroke-dasharray:none;stroke-dashoffset:0;stroke-opacity:1"
       d="M 27.75,129.25 L 715.42182,129.25"
       id="path2400"
       sodipodi:nodetypes="cc" />
    <path
       style="fill:none;fill-rule:evenodd;stroke:#ffffff;stroke-width:1.5;stroke-linecap:butt;stroke-linejoin:miter;stroke-miterlimit:4;stroke-dasharray:none;stroke-opacity:1"
       d="M 28.75,119.25 C 28.75,119.25 28.75,129.25 28.75,129.25"
       id="path3172"
       sodipodi:nodetypes="cc" />
    <path
       sodipodi:nodetypes="cc"
       id="path3176"
       d="M 76.75,119.25 C 76.75,119.25 76.75,129.25 76.75,129.25"
       style="fill:none;fill-rule:evenodd;stroke:#ffffff;stroke-width:1.5;stroke-linecap:butt;stroke-linejoin:miter;stroke-miterlimit:4;stroke-dasharray:none;stroke-opacity:1" />
    <path
       style="fill:none;fill-rule:evenodd;stroke:#ffffff;stroke-width:1.5;stroke-linecap:butt;stroke-linejoin:miter;stroke-miterlimit:4;stroke-dasharray:none;stroke-opacity:1"
       d="M 124.75,119.25 C 124.75,119.25 124.75,129.25 124.75,129.25"
       id="path3180"
       sodipodi:nodetypes="cc" />
    <text
       xml:space="preserve"
       style="font-size:40px;font-style:normal;font-variant:normal;font-weight:normal;font-stretch:normal;fill:#000000;fill-opacity:1;stroke:none;stroke-width:1px;stroke-linecap:butt;stroke-linejoin:miter;stroke-opacity:1;font-family:Denemo;-inkscape-font-specification:Denemo"
       x="11"
       y="184"
       id="text3198"><tspan
         sodipodi:role="line"
         id="tspan3200"
         x="11"
         y="184" /></text>
    <text
       id="text3202"
       y="145"
       x="27.418945"
       style="font-size:40px;font-style:normal;font-variant:normal;font-weight:normal;font-stretch:normal;fill:#ffffff;fill-opacity:1;stroke:none;stroke-width:1px;stroke-linecap:butt;stroke-linejoin:miter;stroke-opacity:1;font-family:Denemo;-inkscape-font-specification:Denemo"
       xml:space="preserve"><tspan
         style="font-size:14px;font-style:normal;font-variant:normal;font-weight:normal;font-stretch:normal;fill:#ffffff;font-family:Arial;-inkscape-font-specification:Arial"
         y="145"
         x="27.418945"
         id="tspan3204"
         sodipodi:role="line">Birth</tspan></text>
    <text
       xml:space="preserve"
       style="font-size:40px;font-style:normal;font-variant:normal;font-weight:normal;font-stretch:normal;fill:#ffffff;fill-opacity:1;stroke:none;stroke-width:1px;stroke-linecap:butt;stroke-linejoin:miter;stroke-opacity:1;font-family:Denemo;-inkscape-font-specification:Denemo"
       x="72.475586"
       y="145"
       id="text3206"><tspan
         sodipodi:role="line"
         id="tspan3208"
         x="72.475586"
         y="145"
         style="font-size:14px;font-style:normal;font-variant:normal;font-weight:normal;font-stretch:normal;fill:#ffffff;font-family:Arial;-inkscape-font-specification:Arial">1</tspan></text>
    <text
       id="text3210"
       y="145"
       x="120.47559"
       style="font-size:40px;font-style:normal;font-variant:normal;font-weight:normal;font-stretch:normal;fill:#ffffff;fill-opacity:1;stroke:none;stroke-width:1px;stroke-linecap:butt;stroke-linejoin:miter;stroke-opacity:1;font-family:Denemo;-inkscape-font-specification:Denemo"
       xml:space="preserve"><tspan
         style="font-size:14px;font-style:normal;font-variant:normal;font-weight:normal;font-stretch:normal;fill:#ffffff;font-family:Arial;-inkscape-font-specification:Arial"
         y="145"
         x="120.47559"
         id="tspan3212"
         sodipodi:role="line">2</tspan></text>
    <path
       sodipodi:nodetypes="cc"
       id="path3216"
       d="M 172.75,119.25 C 172.75,119.25 172.75,129.25 172.75,129.25"
       style="fill:none;fill-rule:evenodd;stroke:#ffffff;stroke-width:1.5;stroke-linecap:butt;stroke-linejoin:miter;stroke-miterlimit:4;stroke-dasharray:none;stroke-opacity:1" />
    <text
       xml:space="preserve"
       style="font-size:40px;font-style:normal;font-variant:normal;font-weight:normal;font-stretch:normal;fill:#ffffff;fill-opacity:1;stroke:none;stroke-width:1px;stroke-linecap:butt;stroke-linejoin:miter;stroke-opacity:1;font-family:Denemo;-inkscape-font-specification:Denemo"
       x="168.47559"
       y="145"
       id="text3222"><tspan
         sodipodi:role="line"
         id="tspan3224"
         x="168.47559"
         y="145"
         style="font-size:14px;font-style:normal;font-variant:normal;font-weight:normal;font-stretch:normal;fill:#ffffff;font-family:Arial;-inkscape-font-specification:Arial">3</tspan></text>
    <path
       sodipodi:nodetypes="cc"
       id="path3228"
       d="M 220.75,119.25 C 220.75,119.25 220.75,129.25 220.75,129.25"
       style="fill:none;fill-rule:evenodd;stroke:#ffffff;stroke-width:1.5;stroke-linecap:butt;stroke-linejoin:miter;stroke-miterlimit:4;stroke-dasharray:none;stroke-opacity:1" />
    <text
       xml:space="preserve"
       style="font-size:40px;font-style:normal;font-variant:normal;font-weight:normal;font-stretch:normal;fill:#ffffff;fill-opacity:1;stroke:none;stroke-width:1px;stroke-linecap:butt;stroke-linejoin:miter;stroke-opacity:1;font-family:Denemo;-inkscape-font-specification:Denemo"
       x="216.47559"
       y="145"
       id="text3234"><tspan
         sodipodi:role="line"
         id="tspan3236"
         x="216.47559"
         y="145"
         style="font-size:14px;font-style:normal;font-variant:normal;font-weight:normal;font-stretch:normal;fill:#ffffff;font-family:Arial;-inkscape-font-specification:Arial">4</tspan></text>
    <path
       style="fill:none;fill-rule:evenodd;stroke:#ffffff;stroke-width:1.5;stroke-linecap:butt;stroke-linejoin:miter;stroke-miterlimit:4;stroke-dasharray:none;stroke-opacity:1"
       d="M 268.75,119.25 C 268.75,119.25 268.75,129.25 268.75,129.25"
       id="path3238"
       sodipodi:nodetypes="cc" />
    <text
       id="text3240"
       y="145"
       x="264.47559"
       style="font-size:40px;font-style:normal;font-variant:normal;font-weight:normal;font-stretch:normal;fill:#ffffff;fill-opacity:1;stroke:none;stroke-width:1px;stroke-linecap:butt;stroke-linejoin:miter;stroke-opacity:1;font-family:Denemo;-inkscape-font-specification:Denemo"
       xml:space="preserve"><tspan
         style="font-size:14px;font-style:normal;font-variant:normal;font-weight:normal;font-stretch:normal;fill:#ffffff;font-family:Arial;-inkscape-font-specification:Arial"
         y="145"
         x="264.47559"
         id="tspan3242"
         sodipodi:role="line">5</tspan></text>
    <path
       sodipodi:nodetypes="cc"
       id="path3246"
       d="M 316.75,119.25 C 316.75,119.25 316.75,129.25 316.75,129.25"
       style="fill:none;fill-rule:evenodd;stroke:#ffffff;stroke-width:1.5;stroke-linecap:butt;stroke-linejoin:miter;stroke-miterlimit:4;stroke-dasharray:none;stroke-opacity:1" />
    <text
       xml:space="preserve"
       style="font-size:40px;font-style:normal;font-variant:normal;font-weight:normal;font-stretch:normal;fill:#ffffff;fill-opacity:1;stroke:none;stroke-width:1px;stroke-linecap:butt;stroke-linejoin:miter;stroke-opacity:1;font-family:Denemo;-inkscape-font-specification:Denemo"
       x="312.47559"
       y="145"
       id="text3252"><tspan
         sodipodi:role="line"
         id="tspan3254"
         x="312.47559"
         y="145"
         style="font-size:14px;font-style:normal;font-variant:normal;font-weight:normal;font-stretch:normal;fill:#ffffff;font-family:Arial;-inkscape-font-specification:Arial">6</tspan></text>
    <path
       style="fill:none;fill-rule:evenodd;stroke:#ffffff;stroke-width:1.5;stroke-linecap:butt;stroke-linejoin:miter;stroke-miterlimit:4;stroke-dasharray:none;stroke-opacity:1"
       d="M 364.75,119.25 C 364.75,119.25 364.75,129.25 364.75,129.25"
       id="path3256"
       sodipodi:nodetypes="cc" />
    <text
       id="text3258"
       y="145"
       x="360.47559"
       style="font-size:40px;font-style:normal;font-variant:normal;font-weight:normal;font-stretch:normal;fill:#ffffff;fill-opacity:1;stroke:none;stroke-width:1px;stroke-linecap:butt;stroke-linejoin:miter;stroke-opacity:1;font-family:Denemo;-inkscape-font-specification:Denemo"
       xml:space="preserve"><tspan
         style="font-size:14px;font-style:normal;font-variant:normal;font-weight:normal;font-stretch:normal;fill:#ffffff;font-family:Arial;-inkscape-font-specification:Arial"
         y="145"
         x="360.47559"
         id="tspan3260"
         sodipodi:role="line">7</tspan></text>
    <path
       style="fill:none;fill-rule:evenodd;stroke:#ffffff;stroke-width:1.5;stroke-linecap:butt;stroke-linejoin:miter;stroke-miterlimit:4;stroke-dasharray:none;stroke-opacity:1"
       d="M 412.75,119.25 C 412.75,119.25 412.75,129.25 412.75,129.25"
       id="path3262"
       sodipodi:nodetypes="cc" />
    <text
       id="text3264"
       y="145"
       x="408.47559"
       style="font-size:40px;font-style:normal;font-variant:normal;font-weight:normal;font-stretch:normal;fill:#ffffff;fill-opacity:1;stroke:none;stroke-width:1px;stroke-linecap:butt;stroke-linejoin:miter;stroke-opacity:1;font-family:Denemo;-inkscape-font-specification:Denemo"
       xml:space="preserve"><tspan
         style="font-size:14px;font-style:normal;font-variant:normal;font-weight:normal;font-stretch:normal;fill:#ffffff;font-family:Arial;-inkscape-font-specification:Arial"
         y="145"
         x="408.47559"
         id="tspan3266"
         sodipodi:role="line">8</tspan></text>
    <path
       sodipodi:nodetypes="cc"
       id="path3268"
       d="M 460.75,119.25 C 460.75,119.25 460.75,129.25 460.75,129.25"
       style="fill:none;fill-rule:evenodd;stroke:#ffffff;stroke-width:1.5;stroke-linecap:butt;stroke-linejoin:miter;stroke-miterlimit:4;stroke-dasharray:none;stroke-opacity:1" />
    <text
       xml:space="preserve"
       style="font-size:40px;font-style:normal;font-variant:normal;font-weight:normal;font-stretch:normal;fill:#ffffff;fill-opacity:1;stroke:none;stroke-width:1px;stroke-linecap:butt;stroke-linejoin:miter;stroke-opacity:1;font-family:Denemo;-inkscape-font-specification:Denemo"
       x="456.47559"
       y="145"
       id="text3270"><tspan
         sodipodi:role="line"
         id="tspan3272"
         x="456.47559"
         y="145"
         style="font-size:14px;font-style:normal;font-variant:normal;font-weight:normal;font-stretch:normal;fill:#ffffff;font-family:Arial;-inkscape-font-specification:Arial">9</tspan></text>
    <path
       sodipodi:nodetypes="cc"
       id="path3330"
       d="M 508.75,119.25 C 508.75,119.25 508.75,129.25 508.75,129.25"
       style="fill:none;fill-rule:evenodd;stroke:#ffffff;stroke-width:1.5;stroke-linecap:butt;stroke-linejoin:miter;stroke-miterlimit:4;stroke-dasharray:none;stroke-opacity:1" />
    <text
       xml:space="preserve"
       style="font-size:40px;font-style:normal;font-variant:normal;font-weight:normal;font-stretch:normal;fill:#ffffff;fill-opacity:1;stroke:none;stroke-width:1px;stroke-linecap:butt;stroke-linejoin:miter;stroke-opacity:1;font-family:Denemo;-inkscape-font-specification:Denemo"
       x="500.47559"
       y="145"
       id="text3336"><tspan
         sodipodi:role="line"
         id="tspan3338"
         x="500.47559"
         y="145"
         style="font-size:14px;font-style:normal;font-variant:normal;font-weight:normal;font-stretch:normal;fill:#ffffff;font-family:Arial;-inkscape-font-specification:Arial">10</tspan></text>
    <path
       style="fill:none;fill-rule:evenodd;stroke:#ffffff;stroke-width:1.5;stroke-linecap:butt;stroke-linejoin:miter;stroke-miterlimit:4;stroke-dasharray:none;stroke-opacity:1"
       d="M 556.75,119.25 C 556.75,119.25 556.75,129.25 556.75,129.25"
       id="path3340"
       sodipodi:nodetypes="cc" />
    <text
       id="text3342"
       y="145"
       x="548.47559"
       style="font-size:40px;font-style:normal;font-variant:normal;font-weight:normal;font-stretch:normal;fill:#ffffff;fill-opacity:1;stroke:none;stroke-width:1px;stroke-linecap:butt;stroke-linejoin:miter;stroke-opacity:1;font-family:Denemo;-inkscape-font-specification:Denemo"
       xml:space="preserve"><tspan
         style="font-size:14px;font-style:normal;font-variant:normal;font-weight:normal;font-stretch:normal;fill:#ffffff;font-family:Arial;-inkscape-font-specification:Arial"
         y="145"
         x="548.47559"
         id="tspan3344"
         sodipodi:role="line">11</tspan></text>
    <path
       style="fill:none;fill-rule:evenodd;stroke:#ffffff;stroke-width:1.5;stroke-linecap:butt;stroke-linejoin:miter;stroke-miterlimit:4;stroke-dasharray:none;stroke-opacity:1"
       d="M 604.75,119.25 C 604.75,119.25 604.75,129.25 604.75,129.25"
       id="path3346"
       sodipodi:nodetypes="cc" />
    <text
       id="text3348"
       y="145"
       x="596.47559"
       style="font-size:40px;font-style:normal;font-variant:normal;font-weight:normal;font-stretch:normal;fill:#ffffff;fill-opacity:1;stroke:none;stroke-width:1px;stroke-linecap:butt;stroke-linejoin:miter;stroke-opacity:1;font-family:Denemo;-inkscape-font-specification:Denemo"
       xml:space="preserve"><tspan
         style="font-size:14px;font-style:normal;font-variant:normal;font-weight:normal;font-stretch:normal;fill:#ffffff;font-family:Arial;-inkscape-font-specification:Arial"
         y="145"
         x="596.47559"
         id="tspan3350"
         sodipodi:role="line">12</tspan></text>
    <path
       sodipodi:nodetypes="cc"
       id="path3352"
       d="M 652.75,119.25 C 652.75,119.25 652.75,129.25 652.75,129.25"
       style="fill:none;fill-rule:evenodd;stroke:#ffffff;stroke-width:1.5;stroke-linecap:butt;stroke-linejoin:miter;stroke-miterlimit:4;stroke-dasharray:none;stroke-opacity:1" />
    <text
       xml:space="preserve"
       style="font-size:40px;font-style:normal;font-variant:normal;font-weight:normal;font-stretch:normal;fill:#ffffff;fill-opacity:1;stroke:none;stroke-width:1px;stroke-linecap:butt;stroke-linejoin:miter;stroke-opacity:1;font-family:Denemo;-inkscape-font-specification:Denemo"
       x="644.47559"
       y="145"
       id="text3354"><tspan
         sodipodi:role="line"
         id="tspan3356"
         x="644.47559"
         y="145"
         style="font-size:14px;font-style:normal;font-variant:normal;font-weight:normal;font-stretch:normal;fill:#ffffff;font-family:Arial;-inkscape-font-specification:Arial">13</tspan></text>
    <path
       style="fill:none;fill-rule:evenodd;stroke:#ffffff;stroke-width:1.5;stroke-linecap:butt;stroke-linejoin:miter;stroke-miterlimit:4;stroke-dasharray:none;stroke-opacity:1"
       d="M 700.75,119.25 C 700.75,119.25 700.75,129.25 700.75,129.25"
       id="path3364"
       sodipodi:nodetypes="cc" />
    <text
       id="text3366"
       y="145"
       x="692.47559"
       style="font-size:40px;font-style:normal;font-variant:normal;font-weight:normal;font-stretch:normal;fill:#ffffff;fill-opacity:1;stroke:none;stroke-width:1px;stroke-linecap:butt;stroke-linejoin:miter;stroke-opacity:1;font-family:Denemo;-inkscape-font-specification:Denemo"
       xml:space="preserve"><tspan
         style="font-size:14px;font-style:normal;font-variant:normal;font-weight:normal;font-stretch:normal;fill:#ffffff;font-family:Arial;-inkscape-font-specification:Arial"
         y="145"
         x="692.47559"
         id="tspan3368"
         sodipodi:role="line">14</tspan></text>
    <text
       xml:space="preserve"
       style="font-size:16px;font-style:normal;font-variant:normal;font-weight:normal;font-stretch:normal;text-align:start;line-height:125%;writing-mode:lr-tb;text-anchor:start;fill:#000000;fill-opacity:1;stroke:none;stroke-width:1px;stroke-linecap:butt;stroke-linejoin:miter;stroke-opacity:1;font-family:Arial;-inkscape-font-specification:Arial"
       x="244"
       y="169"
       id="text3657"
       sodipodi:linespacing="125%"><tspan
         sodipodi:role="line"
         id="tspan3659"
         x="244"
         y="169"
         style="font-size:16px;fill:#ffffff">Billions of Years (approx.)</tspan></text>
    <path
       style="opacity:0.5;fill:#e7e9ed;fill-opacity:1;fill-rule:evenodd;stroke:none;stroke-width:1px;stroke-linecap:butt;stroke-linejoin:miter;stroke-opacity:1;filter:url(#filter3737)"
       d="M 52,50 C 47.25828,49.26814 41.310625,58.689375 38,62 C 34.666399,65.333601 31.724492,58.275508 29,61 C 26.975007,63.024993 26.752115,69.99154 26,73 C 24.949748,77.20101 23.010626,79.957494 22,84 C 20.834582,88.66167 18.598725,90.80255 17,94 C 15.090364,97.81927 11.85726,100.28548 10,104 C 7.491916,109.01617 2.763773,105.52755 7,114 C 8.9400551,117.88011 18.219155,113.39042 19,113 C 23.160377,110.91981 25.647565,107.35244 28,105 C 31.368193,101.63181 35,101.75769 35,94 C 35,90.25537 38.332224,74.671103 39,72 C 41.322035,62.711859 42,77.064983 42,85 C 42,92.82207 46.393936,92.40152 52,91 C 56.124721,89.96882 50.096859,78.387436 50,78 C 48.704533,72.818134 49,68.536169 49,63 C 49,59.3517 50.288702,54.278245 52,50 z"
       id="path3687"
       sodipodi:nodetypes="csssssssssssssssc" />
    <path
       sodipodi:type="arc"
       style="opacity:1;fill:#ffffbb;fill-opacity:1;stroke:none;stroke-width:1.50000000000000000;stroke-linecap:butt;stroke-miterlimit:4;stroke-dasharray:none;stroke-dashoffset:0;stroke-opacity:1;filter:url(#filter8449)"
       id="path3661"
       sodipodi:cx="71"
       sodipodi:cy="89"
       sodipodi:rx="10"
       sodipodi:ry="10"
       d="M 81,89 A 10,10 0 1 1 61,89 A 10,10 0 1 1 81,89 z"
       transform="translate(-41,-4)" />
    <path
       transform="matrix(0.92,0,0,0.92,10.68,3.12)"
       d="M 81,89 A 10,10 0 1 1 61,89 A 10,10 0 1 1 81,89 z"
       sodipodi:ry="10"
       sodipodi:rx="10"
       sodipodi:cy="89"
       sodipodi:cx="71"
       id="path3741"
       style="opacity:1;fill:#ffffff;fill-opacity:1;stroke:#ffff32;stroke-width:5;stroke-linecap:butt;stroke-miterlimit:4;stroke-dasharray:none;stroke-dashoffset:0;stroke-opacity:0.55102036;filter:url(#filter3763)"
       sodipodi:type="arc" />
    <path
       sodipodi:type="arc"
       style="opacity:1;fill:#ffffff;fill-opacity:1;stroke:#ffff32;stroke-width:5;stroke-linecap:butt;stroke-miterlimit:4;stroke-dasharray:none;stroke-dashoffset:0;stroke-opacity:0.55102036;filter:url(#filter3763)"
       id="path3767"
       sodipodi:cx="71"
       sodipodi:cy="89"
       sodipodi:rx="10"
       sodipodi:ry="10"
       d="M 81,89 A 10,10 0 1 1 61,89 A 10,10 0 1 1 81,89 z"
       transform="matrix(0.92,0,0,0.92,58.68,3.12)" />
    <path
       sodipodi:type="arc"
       style="opacity:1;fill:#ffffff;fill-opacity:1;stroke:#ffff32;stroke-width:5;stroke-linecap:butt;stroke-miterlimit:4;stroke-dasharray:none;stroke-dashoffset:0;stroke-opacity:0.55102036;filter:url(#filter3763)"
       id="path3769"
       sodipodi:cx="71"
       sodipodi:cy="89"
       sodipodi:rx="10"
       sodipodi:ry="10"
       d="M 81,89 A 10,10 0 1 1 61,89 A 10,10 0 1 1 81,89 z"
       transform="matrix(0.92,0,0,0.92,106.68,3.12)" />
    <path
       transform="matrix(0.92,0,0,0.92,154.68,3.12)"
       d="M 81,89 A 10,10 0 1 1 61,89 A 10,10 0 1 1 81,89 z"
       sodipodi:ry="10"
       sodipodi:rx="10"
       sodipodi:cy="89"
       sodipodi:cx="71"
       id="path3771"
       style="opacity:1;fill:#ffffff;fill-opacity:1;stroke:#ffff32;stroke-width:5;stroke-linecap:butt;stroke-miterlimit:4;stroke-dasharray:none;stroke-dashoffset:0;stroke-opacity:0.55102036;filter:url(#filter3763)"
       sodipodi:type="arc" />
    <path
       style="fill:none;fill-rule:evenodd;stroke:#8080ff;stroke-width:2;stroke-linecap:butt;stroke-linejoin:miter;marker-start:none;marker-mid:none;marker-end:none;stroke-miterlimit:4;stroke-dasharray:none;stroke-opacity:1"
       d="M 246,63.25 L 246,122"
       id="path3773"
       sodipodi:nodetypes="cc" />
    <path
       sodipodi:type="arc"
       style="opacity:1;fill:#ffffff;fill-opacity:1;stroke:#ffff32;stroke-width:5;stroke-linecap:butt;stroke-miterlimit:4;stroke-dasharray:none;stroke-dashoffset:0;stroke-opacity:0.55102036;filter:url(#filter3763)"
       id="path6114"
       sodipodi:cx="71"
       sodipodi:cy="89"
       sodipodi:rx="10"
       sodipodi:ry="10"
       d="M 81,89 A 10,10 0 1 1 61,89 A 10,10 0 1 1 81,89 z"
       transform="matrix(0.92,0,0,0.92,202.68,3.12)" />
    <path
       transform="matrix(1.02,0,0,1.02,243.58,-5.78)"
       d="M 81,89 A 10,10 0 1 1 61,89 A 10,10 0 1 1 81,89 z"
       sodipodi:ry="10"
       sodipodi:rx="10"
       sodipodi:cy="89"
       sodipodi:cx="71"
       id="path6116"
       style="opacity:1;fill:#ffffff;fill-opacity:1;stroke:#ffff32;stroke-width:4.50980377;stroke-linecap:butt;stroke-miterlimit:4;stroke-dasharray:none;stroke-dashoffset:0;stroke-opacity:0.63063061;filter:url(#filter3763)"
       sodipodi:type="arc" />
    <path
       transform="matrix(1.12,0,0,1.12,284.48,-14.68)"
       d="M 81,89 A 10,10 0 1 1 61,89 A 10,10 0 1 1 81,89 z"
       sodipodi:ry="10"
       sodipodi:rx="10"
       sodipodi:cy="89"
       sodipodi:cx="71"
       id="path6118"
       style="opacity:1;fill:#ffffff;fill-opacity:1;stroke:#ffff32;stroke-width:4.10714293;stroke-linecap:butt;stroke-miterlimit:4;stroke-dasharray:none;stroke-dashoffset:0;stroke-opacity:0.70720712;filter:url(#filter3763)"
       sodipodi:type="arc" />
    <path
       sodipodi:type="arc"
       style="opacity:1;fill:#ffffff;fill-opacity:1;stroke:#ffff32;stroke-width:3.4848485;stroke-linecap:butt;stroke-miterlimit:4;stroke-dasharray:none;stroke-dashoffset:0;stroke-opacity:0.81568627;filter:url(#filter3763)"
       id="path6120"
       sodipodi:cx="71"
       sodipodi:cy="89"
       sodipodi:rx="10"
       sodipodi:ry="10"
       d="M 81,89 A 10,10 0 1 1 61,89 A 10,10 0 1 1 81,89 z"
       transform="matrix(1.32,0,0,1.32,318.28,-32.48)" />
    <path
       style="opacity:1;fill:#8080ff;fill-opacity:1;stroke:#8080ff;stroke-width:2;stroke-linecap:butt;stroke-miterlimit:4;stroke-dashoffset:0;stroke-opacity:1"
       d="M 243.55762,120.95613 L 248.4424,120.95613 L 246.00001,123.98626 L 243.55762,120.95613 z"
       id="rect6643"
       sodipodi:nodetypes="cccc" />
    <text
       xml:space="preserve"
       style="font-size:24px;font-style:normal;font-variant:normal;font-weight:normal;font-stretch:normal;text-align:start;line-height:125%;writing-mode:lr-tb;text-anchor:start;fill:#8080ff;fill-opacity:1;stroke:none;stroke-width:1px;stroke-linecap:butt;stroke-linejoin:miter;stroke-opacity:1;font-family:Arial;-inkscape-font-specification:Arial"
       x="232"
       y="57"
       id="text6646"
       sodipodi:linespacing="125%"><tspan
         sodipodi:role="line"
         id="tspan6648"
         x="232"
         y="57"
         style="font-size:14px">Now</tspan></text>
    <path
       transform="matrix(1.32,0,0,1.32,366.28,-32.48)"
       d="M 81,89 A 10,10 0 1 1 61,89 A 10,10 0 1 1 81,89 z"
       sodipodi:ry="10"
       sodipodi:rx="10"
       sodipodi:cy="89"
       sodipodi:cx="71"
       id="path6650"
       style="opacity:1;fill:#ffffff;fill-opacity:1;stroke:#ffff32;stroke-width:3.4848485;stroke-linecap:butt;stroke-miterlimit:4;stroke-dasharray:none;stroke-dashoffset:0;stroke-opacity:0.81568627;filter:url(#filter3763)"
       sodipodi:type="arc" />
    <path
       sodipodi:type="arc"
       style="opacity:1;fill:#ffb0b0;fill-opacity:1;stroke:#ff9d32;stroke-width:3.71900821;stroke-linecap:butt;stroke-miterlimit:4;stroke-dasharray:none;stroke-dashoffset:0;stroke-opacity:0.81568627;filter:url(#filter6684)"
       id="path6652"
       sodipodi:cx="71"
       sodipodi:cy="89"
       sodipodi:rx="10"
       sodipodi:ry="10"
       d="M 81,89 A 10,10 0 1 1 61,89 A 10,10 0 1 1 81,89 z"
       transform="matrix(2.42,0,0,2.42,340.18,-130.38)" />
    <path
       transform="matrix(0.6553553,0,0,0.6553553,509.46977,26.673375)"
       d="M 81,89 A 10,10 0 1 1 61,89 A 10,10 0 1 1 81,89 z"
       sodipodi:ry="10"
       sodipodi:rx="10"
       sodipodi:cy="89"
       sodipodi:cx="71"
       id="path6654"
       style="opacity:1;fill:#fbffff;fill-opacity:1;stroke:#8590ff;stroke-width:3.96731329;stroke-linecap:butt;stroke-miterlimit:4;stroke-dasharray:none;stroke-dashoffset:0;stroke-opacity:0.81568627;filter:url(#filter6680)"
       sodipodi:type="arc" />
    <path
       sodipodi:type="arc"
       style="opacity:0.4;fill:#ffffff;fill-opacity:0;stroke:#ffff32;stroke-width:2.19780231;stroke-linecap:butt;stroke-miterlimit:4;stroke-dasharray:4.3956044, 2.1978022;stroke-dashoffset:0;stroke-opacity:1;filter:url(#filter6752)"
       id="path6688"
       sodipodi:cx="71"
       sodipodi:cy="89"
       sodipodi:rx="10"
       sodipodi:ry="10"
       d="M 81,89 A 10,10 0 1 1 61,89 A 10,10 0 1 1 81,89 z"
       transform="matrix(1.82,0,0,1.82,329.78,-76.98)" />
    <path
       transform="matrix(1.92,0,0,1.92,322.68,-85.88)"
       d="M 81,89 A 10,10 0 1 1 61,89 A 10,10 0 1 1 81,89 z"
       sodipodi:ry="10"
       sodipodi:rx="10"
       sodipodi:cy="89"
       sodipodi:cx="71"
       id="path6710"
       style="opacity:0.4;fill:#ffffff;fill-opacity:0;stroke:#ffff00;stroke-width:0.98958331;stroke-linecap:butt;stroke-miterlimit:4;stroke-dasharray:7.91666667, 1.97916667, 0.98958333, 1.97916667;stroke-dashoffset:0;stroke-opacity:1;filter:url(#filter6760)"
       sodipodi:type="arc" />
    <text
       sodipodi:linespacing="125%"
       id="text6764"
       y="57"
       x="317"
       style="font-size:24px;font-style:normal;font-variant:normal;font-weight:normal;font-stretch:normal;text-align:start;line-height:125%;writing-mode:lr-tb;text-anchor:start;fill:#ffffff;fill-opacity:1;stroke:none;stroke-width:1px;stroke-linecap:butt;stroke-linejoin:miter;stroke-opacity:1;font-family:Arial;-inkscape-font-specification:Arial"
       xml:space="preserve"><tspan
         style="font-size:14px;fill:#ffffff"
         y="57"
         x="317"
         id="tspan6766"
         sodipodi:role="line">Gradual warming</tspan></text>
    <text
       xml:space="preserve"
       style="font-size:24px;font-style:normal;font-variant:normal;font-weight:normal;font-stretch:normal;text-align:start;line-height:125%;writing-mode:lr-tb;text-anchor:start;fill:#ffffff;fill-opacity:1;stroke:none;stroke-width:1px;stroke-linecap:butt;stroke-linejoin:miter;stroke-opacity:1;font-family:Arial;-inkscape-font-specification:Arial"
       x="481"
       y="49"
       id="text6768"
       sodipodi:linespacing="125%"><tspan
         sodipodi:role="line"
         id="tspan6770"
         x="481"
         y="49"
         style="font-size:14px;fill:#ffffff">Red Giant</tspan></text>
    <text
       sodipodi:linespacing="125%"
       id="text6772"
       y="57"
       x="585"
       style="font-size:24px;font-style:normal;font-variant:normal;font-weight:normal;font-stretch:normal;text-align:start;line-height:125%;writing-mode:lr-tb;text-anchor:start;fill:#ffffff;fill-opacity:1;stroke:none;stroke-width:1px;stroke-linecap:butt;stroke-linejoin:miter;stroke-opacity:1;font-family:Arial;-inkscape-font-specification:Arial"
       xml:space="preserve"><tspan
         style="font-size:14px;fill:#ffffff"
         y="57"
         x="585"
         id="tspan6774"
         sodipodi:role="line">Planetary Nebula</tspan></text>
    <text
       xml:space="preserve"
       style="font-size:24px;font-style:normal;font-variant:normal;font-weight:normal;font-stretch:normal;text-align:start;line-height:125%;writing-mode:lr-tb;text-anchor:start;fill:#ffffff;fill-opacity:1;stroke:none;stroke-width:1px;stroke-linecap:butt;stroke-linejoin:miter;stroke-opacity:1;font-family:Arial;-inkscape-font-specification:Arial"
       x="613"
       y="113"
       id="text6776"
       sodipodi:linespacing="125%"><tspan
         sodipodi:role="line"
         id="tspan6778"
         x="613"
         y="113"
         style="font-size:14px;fill:#ffffff">White Dwarf</tspan></text>
    <path
       transform="matrix(2.42,0,0,2.42,384.18,-130.38)"
       style="opacity:0.58687259000000003;fill:#ffffff;fill-opacity:0;stroke:#ffffff;stroke-width:3.71900821000000010;stroke-linecap:butt;stroke-miterlimit:4;stroke-dashoffset:0;stroke-opacity:0.81568627000000005;filter:url(#filter6795)"
       d="M 64.710051,81.225906 C 69.001351,77.753854 75.302042,78.418751 78.774094,82.710051 C 82.246146,87.001351 81.581249,93.302042 77.289949,96.774094 C 73.641606,99.725935 68.62812,99.788789 64.906922,96.929338"
       id="path6780"
       sodipodi:nodetypes="cccssc" />
    <path
       sodipodi:nodetypes="cccssc"
       id="path6799"
       d="M 64.710051,81.225906 C 69.001351,77.753854 75.302042,78.418751 78.774094,82.710051 C 82.246146,87.001351 81.581249,93.302042 77.289949,96.774094 C 73.641606,99.725935 68.62812,99.788789 64.906922,96.929338"
       style="opacity:0.76833976999999998;fill:#ffffff;fill-opacity:0;stroke:#6d6eff;stroke-width:2.78369521;stroke-linecap:butt;stroke-miterlimit:4;stroke-dashoffset:0;stroke-opacity:1;filter:url(#filter6869);stroke-dasharray:none"
       transform="matrix(3.2475111,0,0,3.2187779,323.89212,-201.48435)" />
    <path
       sodipodi:type="arc"
       style="opacity:1;fill:#fbffff;fill-opacity:1;stroke:#8590ff;stroke-width:4.35673857;stroke-linecap:butt;stroke-miterlimit:4;stroke-dasharray:none;stroke-dashoffset:0;stroke-opacity:0.81568627;filter:url(#filter6680)"
       id="path6873"
       sodipodi:cx="71"
       sodipodi:cy="89"
       sodipodi:rx="10"
       sodipodi:ry="10"
       d="M 81,89 A 10,10 0 1 1 61,89 A 10,10 0 1 1 81,89 z"
       transform="matrix(0.5967767,0,0,0.5967767,561.62885,31.886874)" />
    <path
       transform="matrix(0.42,0,0,0.42,622.18,47.62)"
       d="M 81,89 A 10,10 0 1 1 61,89 A 10,10 0 1 1 81,89 z"
       sodipodi:ry="10"
       sodipodi:rx="10"
       sodipodi:cy="89"
       sodipodi:cx="71"
       id="path6875"
       style="opacity:1;fill:#fbffff;fill-opacity:1;stroke:#8590ff;stroke-width:6.19047642;stroke-linecap:butt;stroke-miterlimit:4;stroke-dasharray:none;stroke-dashoffset:0;stroke-opacity:0.81568627;filter:url(#filter6680)"
       sodipodi:type="arc" />
    <path
       sodipodi:type="arc"
       style="opacity:1;fill:#fbffff;fill-opacity:1;stroke:#8590ff;stroke-width:7.44368601;stroke-linecap:butt;stroke-miterlimit:4;stroke-dasharray:none;stroke-dashoffset:0;stroke-opacity:0.81568627;filter:url(#filter6680)"
       id="path6877"
       sodipodi:cx="71"
       sodipodi:cy="89"
       sodipodi:rx="10"
       sodipodi:ry="10"
       d="M 81,89 A 10,10 0 1 1 61,89 A 10,10 0 1 1 81,89 z"
       transform="matrix(0.3492893,0,0,0.3492893,675.20046,53.91325)" />
    <text
       sodipodi:linespacing="125%"
       id="text6879"
       y="168"
       x="475"
       style="font-size:24px;font-style:normal;font-variant:normal;font-weight:normal;font-stretch:normal;text-align:start;line-height:125%;writing-mode:lr-tb;text-anchor:start;opacity:0.75;fill:#ffffff;fill-opacity:1;stroke:none;stroke-width:1px;stroke-linecap:butt;stroke-linejoin:miter;stroke-opacity:1;font-family:Arial;-inkscape-font-specification:Arial"
       xml:space="preserve"><tspan
         style="font-size:14px;font-style:italic;fill:#ffffff;-inkscape-font-specification:Arial Italic"
         y="168"
         x="475"
         id="tspan6881"
         sodipodi:role="line">not to scale</tspan></text>
    <path
       style="fill:none;fill-rule:evenodd;stroke:#ffffff;stroke-width:1;stroke-linecap:butt;stroke-linejoin:miter;stroke-miterlimit:4;stroke-dasharray:12, 12;stroke-dashoffset:0;stroke-opacity:1;filter:url(#filter6925)"
       d="M 542,52 C 546.11234,58.986189 546.52161,65.195963 551,54 C 554.20305,45.992369 555.01146,57.057294 556,62 C 556.17222,62.861117 566.32508,34.049499 562,60 C 561.08264,65.50416 567.38424,59.723152 571,59 C 574.35201,58.329598 559.78742,72.07086 575,67 C 579,65.666667 582.90952,64.02262 587,63 C 591.66386,61.834034 578.39935,67.600654 575,71 C 569.64247,76.357525 592.86652,74.533371 595,74 C 599.63011,72.842473 585.63011,75.842473 581,77 C 572.54663,79.113343 578.0619,84.224761 585,87 C 592.18142,89.87257 598.78196,93 587,93 C 580.4728,93 575,90.61688 575,98 C 575,104.31563 575.89046,107.56184 577,112 C 578.18392,116.73569 571.37416,108.37416 570,107 C 567.98616,104.98616 567.69074,112.23703 567,115 C 566.07822,118.68711 562.68742,108.68742 560,106 C 557.74161,103.74161 556.98303,110.03394 555,114 C 550.93482,122.13035 551,116.52823 551,110 C 551,101.46558 549.29585,102.60554 546,107 C 543.54151,110.27799 540.43499,111.56501 538,114 C 534.42152,117.57848 539.39484,106.80688 540,106"
       id="path6883" />
    <path
       id="path6929"
       d="M 542,52 C 546.11234,58.986189 546.52161,65.195963 551,54 C 554.20305,45.992369 555.01146,57.057294 556,62 C 556.17222,62.861117 566.32508,34.049499 562,60 C 561.08264,65.50416 567.38424,59.723152 571,59 C 574.35201,58.329598 559.78742,72.07086 575,67 C 579,65.666667 582.90952,64.02262 587,63 C 591.66386,61.834034 578.39935,67.600654 575,71 C 569.64247,76.357525 592.86652,74.533371 595,74 C 599.63011,72.842473 585.63011,75.842473 581,77 C 572.54663,79.113343 578.0619,84.224761 585,87 C 592.18142,89.87257 598.78196,93 587,93 C 580.4728,93 575,90.61688 575,98 C 575,104.31563 575.89046,107.56184 577,112 C 578.18392,116.73569 571.37416,108.37416 570,107 C 567.98616,104.98616 567.69074,112.23703 567,115 C 566.07822,118.68711 562.68742,108.68742 560,106 C 557.74161,103.74161 556.98303,110.03394 555,114 C 550.93482,122.13035 551,116.52823 551,110 C 551,101.46558 549.29585,102.60554 546,107 C 543.54151,110.27799 540.43499,111.56501 538,114 C 534.42152,117.57848 539.39484,106.80688 540,106"
       style="fill:none;fill-rule:evenodd;stroke:#001144;stroke-width:1.50000000000000000;stroke-linecap:butt;stroke-linejoin:miter;stroke-miterlimit:4;stroke-dasharray:18, 18;stroke-dashoffset:0;stroke-opacity:1;filter:url(#filter6983)"
       transform="matrix(1,0,0,-1,0,169.17809)" />
  </g>
</svg>
