<?xml version="1.0" encoding="UTF-8" standalone="no"?>
<!-- Created with Inkscape (http://www.inkscape.org/) -->
<svg
   xmlns:svg="http://www.w3.org/2000/svg"
   xmlns="http://www.w3.org/2000/svg"
   version="1.0"
   width="733"
   height="568"
   viewBox="0 0 700 500"
   id="svg4701">
  <defs
     id="defs4844" />
  <g
     transform="translate(-2.4958197,-197.77787)"
     id="g4827"
     style="fill:none;stroke:#ff0000;stroke-width:1;stroke-linecap:butt;stroke-linejoin:miter" />
  <g
     transform="translate(-2.4958197,-197.77787)"
     id="layer5" />
  <g
     transform="translate(-2.4958197,-197.77787)"
     id="layer7">
    <flowRoot
       id="flowRoot5211"
       xml:space="preserve"
       style="font-size:40px;font-style:normal;font-weight:normal;fill:#000000;fill-opacity:1;stroke:none;stroke-width:1px;stroke-linecap:butt;stroke-linejoin:miter;stroke-opacity:1;font-family:Lucida Sans Unicode"><flowRegion
         id="flowRegion5213"><rect
           width="142.99258"
           height="80.903709"
           x="-317.02963"
           y="151.39258"
           id="rect5215" /></flowRegion><flowPara
         id="flowPara5217" /></flowRoot>  </g>
  <g
     id="layer2"
     style="display:inline">
    <g
       id="g4035">
      <text
         x="-414.15158"
         y="20.955816"
         transform="matrix(0,-1,1,0,0,0)"
         id="text6006"
         xml:space="preserve"
         style="font-size:21.00955009px;font-style:normal;font-weight:normal;fill:#000000;fill-opacity:1;stroke:none;stroke-width:1px;stroke-linecap:butt;stroke-linejoin:miter;stroke-opacity:1;display:inline;font-family:Bitstream Vera Sans"><tspan
           x="-414.15158"
           y="20.955816"
           id="tspan6008"
           style="font-size:21.00955009px">Temperatur-Abweichung (°C)</tspan></text>
      <path
         d="M 63.958048,27.24092 L 63.958048,495.02119 L 679.55805,495.02119 L 679.55805,27.24092 L 63.958048,27.24092 z"
         id="path4821"
         style="fill:#f9f9f9;fill-opacity:1;stroke:#898282;stroke-width:0.99999994;stroke-linecap:butt;stroke-linejoin:miter;stroke-opacity:1;display:inline" />
      <path
         d="M 125.26551,494.53121 L 125.26551,27.114975 M 187.2227,494.53121 L 187.2227,27.114975 M 248.74506,494.53121 L 248.74506,27.114975 M 310.06559,494.53121 L 310.06559,27.114975 M 371.38611,494.53121 L 371.38611,27.114975 M 433.54367,494.53121 L 433.54367,27.114975 M 494.86711,494.53121 L 494.86711,27.114975 M 556.18764,494.53121 L 556.18764,27.114975 M 617.88872,494.53121 L 617.88872,27.114975 M 63.944987,436.11277 L 679.02907,436.11277 M 63.944987,377.6776 L 679.02907,377.6776 M 63.944987,318.87359 L 679.02907,318.87359 M 63.944987,260.824 L 679.02907,260.824 M 63.944987,202.01997 L 679.02907,202.01997 M 63.944987,143.96857 L 679.02907,143.96857 M 63.944987,84.913498 L 679.02907,84.913498"
         id="path3272"
         style="fill:none;stroke:#000000;stroke-width:0.15992554;stroke-linejoin:round;stroke-miterlimit:10;stroke-dasharray:2.57076543, 2.57076543;display:inline" />
      <text
         x="328.35553"
         y="61.186699"
         id="text5979"
         xml:space="preserve"
         style="font-size:15.3170929px;font-style:normal;font-weight:normal;fill:#000000;fill-opacity:1;stroke:none;stroke-width:1px;stroke-linecap:butt;stroke-linejoin:miter;stroke-opacity:1;display:inline;font-family:Bitstream Vera Sans"><tspan
           x="328.35553"
           y="61.186699"
           id="tspan5981">Mittelalterliche</tspan><tspan
           x="328.35553"
           y="80.333061"
           id="tspan5983">Warmzeit</tspan></text>
      <text
         x="506.41675"
         y="469.96164"
         id="text6000"
         xml:space="preserve"
         style="font-size:15.3170929px;font-style:normal;font-weight:normal;fill:#000000;fill-opacity:1;stroke:none;stroke-width:1px;stroke-linecap:butt;stroke-linejoin:miter;stroke-opacity:1;display:inline;font-family:Bitstream Vera Sans"><tspan
           x="506.41675"
           y="469.96164"
           id="tspan6002">Kleine Eiszeit</tspan></text>
      <path
         d="M 63.95805,495.02121 L 72.95805,495.02121 M 679.55805,495.02121 L 670.55805,495.02121"
         id="path4707"
         style="fill:none;stroke:#898282;stroke-width:1;stroke-linecap:butt;stroke-linejoin:miter;stroke-opacity:1;display:inline" />
      <path
         d="M 63.95805,436.42121 L 72.95805,436.42121 M 679.55805,436.42121 L 670.55805,436.42121"
         id="path4713"
         style="fill:none;stroke:#898282;stroke-width:1;stroke-linecap:butt;stroke-linejoin:miter;stroke-opacity:1;display:inline" />
      <path
         d="M 63.95805,377.92121 L 72.95805,377.92121 M 679.55805,377.92121 L 670.55805,377.92121"
         id="path4719"
         style="fill:none;stroke:#898282;stroke-width:1;stroke-linecap:butt;stroke-linejoin:miter;stroke-opacity:1;display:inline" />
      <path
         d="M 63.95805,319.32121 L 72.95805,319.32121 M 679.55805,319.32121 L 670.55805,319.32121"
         id="path4725"
         style="fill:none;stroke:#898282;stroke-width:1;stroke-linecap:butt;stroke-linejoin:miter;stroke-opacity:1;display:inline" />
      <path
         d="M 63.95805,260.72121 L 72.95805,260.72121 M 679.55805,260.72121 L 670.55805,260.72121"
         id="path4731"
         style="fill:none;stroke:#898282;stroke-width:1;stroke-linecap:butt;stroke-linejoin:miter;stroke-opacity:1;display:inline" />
      <path
         d="M 63.95805,202.12121 L 72.95805,202.12121 M 679.55805,202.12121 L 670.55805,202.12121"
         id="path4737"
         style="fill:none;stroke:#898282;stroke-width:1;stroke-linecap:butt;stroke-linejoin:miter;stroke-opacity:1;display:inline" />
      <path
         d="M 63.95805,143.62121 L 72.95805,143.62121 M 679.55805,143.62121 L 670.55805,143.62121"
         id="path4743"
         style="fill:none;stroke:#898282;stroke-width:1;stroke-linecap:butt;stroke-linejoin:miter;stroke-opacity:1;display:inline" />
      <path
         d="M 63.95805,85.02121 L 72.95805,85.02121 M 679.55805,85.02121 L 670.55805,85.02121"
         id="path4749"
         style="fill:none;stroke:#898282;stroke-width:1;stroke-linecap:butt;stroke-linejoin:miter;stroke-opacity:1;display:inline" />
      <path
         d="M 63.95805,495.02121 L 63.95805,484.74888 M 63.95805,27.0594 L 63.95805,37.33174"
         id="path4755"
         style="fill:none;stroke:#898282;stroke-width:1;stroke-linecap:butt;stroke-linejoin:miter;stroke-opacity:1;display:inline" />
      <path
         d="M 125.55805,495.02121 L 125.55805,484.74888 M 125.55805,27.0594 L 125.55805,37.33174"
         id="path4761"
         style="fill:none;stroke:#898282;stroke-width:1;stroke-linecap:butt;stroke-linejoin:miter;stroke-opacity:1;display:inline" />
      <path
         d="M 187.05805,495.02121 L 187.05805,484.74888 M 187.05805,27.0594 L 187.05805,37.33174"
         id="path4767"
         style="fill:none;stroke:#898282;stroke-width:1;stroke-linecap:butt;stroke-linejoin:miter;stroke-opacity:1;display:inline" />
      <path
         d="M 248.65805,495.02121 L 248.65805,484.74888 M 248.65805,27.0594 L 248.65805,37.33174"
         id="path4773"
         style="fill:none;stroke:#898282;stroke-width:1;stroke-linecap:butt;stroke-linejoin:miter;stroke-opacity:1;display:inline" />
      <path
         d="M 310.15805,495.02121 L 310.15805,484.74888 M 310.15805,27.0594 L 310.15805,37.33174"
         id="path4779"
         style="fill:none;stroke:#898282;stroke-width:1;stroke-linecap:butt;stroke-linejoin:miter;stroke-opacity:1;display:inline" />
      <path
         d="M 371.75805,495.02121 L 371.75805,484.74888 M 371.75805,27.0594 L 371.75805,37.33174"
         id="path4785"
         style="fill:none;stroke:#898282;stroke-width:1;stroke-linecap:butt;stroke-linejoin:miter;stroke-opacity:1;display:inline" />
      <path
         d="M 433.35805,495.02121 L 433.35805,484.74888 M 433.35805,27.0594 L 433.35805,37.33174"
         id="path4791"
         style="fill:none;stroke:#898282;stroke-width:1;stroke-linecap:butt;stroke-linejoin:miter;stroke-opacity:1;display:inline" />
      <path
         d="M 494.85805,495.02121 L 494.85805,484.74888 M 494.85805,27.0594 L 494.85805,37.33174"
         id="path4797"
         style="fill:none;stroke:#898282;stroke-width:1;stroke-linecap:butt;stroke-linejoin:miter;stroke-opacity:1;display:inline" />
      <path
         d="M 556.45805,495.02121 L 556.45805,484.74888 M 556.45805,27.0594 L 556.45805,37.33174"
         id="path4803"
         style="fill:none;stroke:#898282;stroke-width:1;stroke-linecap:butt;stroke-linejoin:miter;stroke-opacity:1;display:inline" />
      <path
         d="M 617.95805,495.02121 L 617.95805,484.74888 M 617.95805,27.0594 L 617.95805,37.33174"
         id="path4809"
         style="fill:none;stroke:#898282;stroke-width:1;stroke-linecap:butt;stroke-linejoin:miter;stroke-opacity:1;display:inline" />
      <path
         d="M 679.55805,495.02121 L 679.55805,484.74888 M 679.55805,27.0594 L 679.55805,37.33174"
         id="path4815"
         style="fill:none;stroke:#898282;stroke-width:1;stroke-linecap:butt;stroke-linejoin:miter;stroke-opacity:1;display:inline" />
      <path
         d="M 63.95805,27.32244 L 72.95805,27.32244 M 679.55805,27.32244 L 670.55805,27.32244"
         id="path5498"
         style="fill:none;stroke:#898282;stroke-width:1;stroke-linecap:butt;stroke-linejoin:miter;stroke-opacity:1;display:inline" />
      <g
         transform="translate(55.65805,499.52121)"
         id="g4709"
         style="font-size:15px;text-anchor:end;fill:#000000;stroke:none;stroke-width:1;stroke-linecap:butt;stroke-linejoin:miter;display:inline;font-family:Arial">
        <text
           id="text4711">-0.8</text>
      </g>
      <g
         transform="translate(55.65805,440.92121)"
         id="g4715"
         style="font-size:15px;text-anchor:end;fill:#000000;stroke:none;stroke-width:1;stroke-linecap:butt;stroke-linejoin:miter;display:inline;font-family:Arial">
        <text
           id="text4717">-0.6</text>
      </g>
      <g
         transform="translate(55.65805,382.42121)"
         id="g4721"
         style="font-size:15px;text-anchor:end;fill:#000000;stroke:none;stroke-width:1;stroke-linecap:butt;stroke-linejoin:miter;display:inline;font-family:Arial">
        <text
           id="text4723">-0.4</text>
      </g>
      <g
         transform="translate(55.65805,323.82121)"
         id="g4727"
         style="font-size:15px;text-anchor:end;fill:#000000;stroke:none;stroke-width:1;stroke-linecap:butt;stroke-linejoin:miter;display:inline;font-family:Arial">
        <text
           id="text4729">-0.2</text>
      </g>
      <g
         transform="translate(55.65805,265.22121)"
         id="g4733"
         style="font-size:15px;text-anchor:end;fill:#000000;stroke:none;stroke-width:1;stroke-linecap:butt;stroke-linejoin:miter;display:inline;font-family:Arial">
        <text
           id="text4735">0</text>
      </g>
      <g
         transform="translate(55.65805,206.62121)"
         id="g4739"
         style="font-size:15px;text-anchor:end;fill:#000000;stroke:none;stroke-width:1;stroke-linecap:butt;stroke-linejoin:miter;display:inline;font-family:Arial">
        <text
           id="text4741">0.2</text>
      </g>
      <g
         transform="translate(55.65805,148.12121)"
         id="g4745"
         style="font-size:15px;text-anchor:end;fill:#000000;stroke:none;stroke-width:1;stroke-linecap:butt;stroke-linejoin:miter;display:inline;font-family:Arial">
        <text
           id="text4747">0.4</text>
      </g>
      <g
         transform="translate(55.65805,89.521209)"
         id="g4751"
         style="font-size:15px;text-anchor:end;fill:#000000;stroke:none;stroke-width:1;stroke-linecap:butt;stroke-linejoin:miter;display:inline;font-family:Arial">
        <text
           id="text4753">0.6</text>
      </g>
      <g
         transform="translate(63.95805,517.52121)"
         id="g4757"
         style="font-size:15px;text-anchor:middle;fill:#000000;stroke:none;stroke-width:1;stroke-linecap:butt;stroke-linejoin:miter;display:inline;font-family:Arial">
        <text
           id="text4759">0</text>
      </g>
      <g
         transform="translate(125.55805,517.52121)"
         id="g4763"
         style="font-size:15px;text-anchor:middle;fill:#000000;stroke:none;stroke-width:1;stroke-linecap:butt;stroke-linejoin:miter;display:inline;font-family:Arial">
        <text
           id="text4765">200</text>
      </g>
      <g
         transform="translate(187.05805,517.52121)"
         id="g4769"
         style="font-size:15px;text-anchor:middle;fill:#000000;stroke:none;stroke-width:1;stroke-linecap:butt;stroke-linejoin:miter;display:inline;font-family:Arial">
        <text
           id="text4771">400</text>
      </g>
      <g
         transform="translate(248.65805,517.52121)"
         id="g4775"
         style="font-size:15px;text-anchor:middle;fill:#000000;stroke:none;stroke-width:1;stroke-linecap:butt;stroke-linejoin:miter;display:inline;font-family:Arial">
        <text
           id="text4777">600</text>
      </g>
      <g
         transform="translate(310.15805,517.52121)"
         id="g4781"
         style="font-size:15px;text-anchor:middle;fill:#000000;stroke:none;stroke-width:1;stroke-linecap:butt;stroke-linejoin:miter;display:inline;font-family:Arial">
        <text
           id="text4783">800</text>
      </g>
      <g
         transform="translate(371.75805,517.52121)"
         id="g4787"
         style="font-size:15px;text-anchor:middle;fill:#000000;stroke:none;stroke-width:1;stroke-linecap:butt;stroke-linejoin:miter;display:inline;font-family:Arial">
        <text
           id="text4789">1000</text>
      </g>
      <g
         transform="translate(433.35805,517.52121)"
         id="g4793"
         style="font-size:15px;text-anchor:middle;fill:#000000;stroke:none;stroke-width:1;stroke-linecap:butt;stroke-linejoin:miter;display:inline;font-family:Arial">
        <text
           id="text4795">1200</text>
      </g>
      <g
         transform="translate(494.85805,517.52121)"
         id="g4799"
         style="font-size:15px;text-anchor:middle;fill:#000000;stroke:none;stroke-width:1;stroke-linecap:butt;stroke-linejoin:miter;display:inline;font-family:Arial">
        <text
           id="text4801">1400</text>
      </g>
      <g
         transform="translate(556.45805,517.52121)"
         id="g4805"
         style="font-size:15px;text-anchor:middle;fill:#000000;stroke:none;stroke-width:1;stroke-linecap:butt;stroke-linejoin:miter;display:inline;font-family:Arial">
        <text
           id="text4807">1600</text>
      </g>
      <g
         transform="translate(617.95805,517.52121)"
         id="g4811"
         style="font-size:15px;text-anchor:middle;fill:#000000;stroke:none;stroke-width:1;stroke-linecap:butt;stroke-linejoin:miter;display:inline;font-family:Arial">
        <text
           id="text4813">1800</text>
      </g>
      <g
         transform="translate(679.55805,517.52121)"
         id="g4817"
         style="font-size:15px;text-anchor:middle;fill:#000000;stroke:none;stroke-width:1;stroke-linecap:butt;stroke-linejoin:miter;display:inline;font-family:Arial">
        <text
           id="text4819">2000</text>
      </g>
      <g
         transform="translate(55.65805,32.28673)"
         id="g5501"
         style="font-size:15px;text-anchor:end;fill:#000000;stroke:none;stroke-width:1;stroke-linecap:butt;stroke-linejoin:miter;display:inline;font-family:Arial">
        <text
           id="text5503">0.8</text>
      </g>
      <path
         d="M 68.858051,343.22122 C 71.247026,331.30763 70.351867,319.45109 71.958053,307.4212 C 72.657789,311.41366 73.281747,332.35362 73.406737,319.45278 C 75.338322,316.64164 76.031878,320.7226 76.012422,309.4544 C 76.094298,298.21 76.176173,286.96561 76.258048,275.72121 C 77.770646,283.98046 79.051531,261.6416 79.950933,267.95681 C 81.537652,282.43086 81.136659,259.58261 81.913349,268.20749 C 81.947303,275.0984 82.450968,295.36854 82.758048,278.02121 C 84.440265,283.69802 83.579494,266.1224 85.858047,278.4212 C 87.811834,283.7152 87.727991,278.27023 89.458053,271.22121 C 91.685469,259.8428 91.102675,248.1843 91.358047,236.62122 C 92.024835,244.51754 91.664593,223.3231 92.537518,218.54974 C 93.301422,202.35221 93.393825,224.03665 93.939385,207.63003 C 94.478689,203.67928 94.249656,183.78952 96.161223,190.40109 C 95.701869,204.24104 97.242188,217.66677 99.48931,231.20883 C 101.29989,235.55925 100.39585,256.666 101.11124,246.94816 C 102.02894,251.82155 101.5999,260.02695 102.51475,262.10748 C 102.50965,270.47457 102.88262,278.82079 103.95805,287.12122 C 106.41424,284.4108 104.58608,273.45721 106.45805,266.62122 C 108.2027,256.1462 108.11276,245.40419 109.85805,234.9212 C 110.47975,242.52172 110.4876,220.91173 111.29096,216.24608 C 111.55452,211.50733 111.55941,188.59082 111.71524,198.10105 C 112.51025,205.50371 110.31627,214.64473 113.55805,219.32121 C 116.51802,228.55443 115.78123,215.86151 117.15805,210.4212 C 118.3409,208.92045 119.08309,224.77278 119.27335,230.28511 C 119.51821,234.92308 120.95824,256.55658 121.06391,243.35116 C 121.32737,230.85077 122.07081,252.08884 122.58931,256.70883 C 125.22545,293.18595 125.09779,329.94519 127.95805,366.3212 C 128.94541,373.47316 128.05528,381.79002 129.41715,365.8363 C 131.13305,354.78323 131.80598,343.65107 132.85805,332.52121 C 134.13519,333.90062 134.01315,319.40266 135.35805,314.52121 C 136.24065,309.68963 136.49598,288.73927 137.18048,301.9861 C 139.13699,312.09984 136.4589,322.81953 139.65805,332.72122 C 141.41423,334.3458 142.72316,335.4353 143.53598,325.23846 C 145.30737,312.82149 146.06466,329.63807 146.45148,314.35481 C 147.09042,305.12728 146.81287,295.86408 147.05804,286.62122 C 147.02874,301.39467 147.99869,287.2645 149.73598,280.83845 C 151.51976,269.14527 151.30679,281.91595 153.25806,287.12122 C 155.88782,295.21623 156.39108,273.81305 156.44436,280.00219 C 158.20865,283.72776 160.56996,282.87049 160.69066,277.23735 C 160.63271,268.72515 163.04958,267.83997 163.93327,264.75339 C 165.38681,258.51621 165.79562,244.35436 165.75565,259.77943 C 165.67756,267.96034 168.50248,263.27064 168.65805,255.82121 C 169.85814,249.17693 172.09614,246.43796 172.38977,240.04295 C 172.50338,230.12457 173.79989,230.92425 173.45188,219.38201 C 173.65699,211.65821 175.16711,209.74708 174.75806,198.62122 C 177.16701,207.61021 174.96946,194.92079 177.85805,207.12122 C 184.40013,235.22339 181.05178,264.55286 182.37413,293.22117 C 182.00562,298.50875 184.76093,317.92187 184.20357,314.54813 C 184.79772,316.41186 185.60287,330.91141 188.35805,321.72122 C 193.42545,301.14302 189.72675,279.44818 193.68931,258.73359 C 194.69287,248.19818 194.49099,247.41924 195.65805,243.62122 C 198.62784,241.27886 200.25171,228.83762 199.83032,242.58623 C 199.56633,252.24869 203.96383,246.17538 202.64012,256.086 C 202.56778,265.05193 205.06052,259.03002 205.85805,270.12122 C 207.66126,269.18247 208.91486,286.41481 208.79375,276.84307 C 208.88627,272.12624 209.15423,253.40821 210.45805,261.72121 C 212.64973,257.61592 211.19263,249.15014 211.95114,264.86481 C 211.12228,271.89841 214.39072,279.57365 216.05804,268.9212 C 218.12191,271.23337 217.54505,280.73122 218.39943,288.29824 C 218.81613,300.06064 221.71638,297.01175 220.80667,286.26848 C 220.87088,270.30015 221.07649,281.51356 221.29278,285.02821 C 221.55939,276.01909 221.48926,266.32196 223.65805,257.82121 C 225.71573,262.91254 224.87619,274.07909 228.05804,266.52121 C 230.29428,256.90757 229.98083,247.02872 230.15805,237.22121 C 229.91078,240.88859 231.40774,257.20083 233.55804,249.12122 C 234.44562,241.90506 235.08048,233.01752 237.55804,227.22121 C 241.03376,227.92777 238.35635,213.59967 239.99096,208.84609 C 241.64056,207.62826 239.28925,219.63315 243.05804,212.72121 C 245.64484,203.28137 242.77485,191.53696 246.33598,181.63845 C 247.63794,165.74098 249.04059,189.05384 249.68069,180.73693 C 250.0694,173.54768 250.05595,153.14335 250.44388,170.77705 C 253.04334,170.31354 252.64433,149.63786 253.03149,160.50081 C 252.93761,173.57953 253.54685,176.4842 254.11753,161.95324 C 255.38045,164.70572 255.90564,175.91137 256.65525,181.89318 C 259.31968,191.92974 258.36756,175.04081 259.35121,170.45061 C 259.01893,169.76254 261.52749,182.64127 261.25806,187.02121 C 262.26479,198.14728 262.29856,211.26921 264.05804,221.12122 C 265.05685,214.53335 265.72616,207.90493 266.75806,201.32121 C 267.47253,204.58926 267.54824,193.7389 267.69379,208.17235 C 268.71169,214.21094 269.9151,222.32517 269.74695,207.36912 C 270.62321,189.95865 274.27559,172.70573 273.22418,155.00238 C 273.24485,152.43511 275.21653,167.57244 275.45804,172.4212 C 276.00122,180.89884 276.39533,189.5795 276.95804,186.12122 C 278.19123,193.52423 277.72369,173.43231 277.99805,190.48052 C 277.64241,195.57641 278.95458,212.72372 280.56925,199.54282 C 281.7388,184.77509 282.15112,202.7272 282.00154,208.36104 C 282.32456,215.7603 281.59765,226.8739 283.45804,231.9212 C 284.70447,227.59539 284.80139,206.07785 285.43953,215.69773 C 285.68689,219.69947 285.96533,200.829 286.79469,195.22826 C 287.11085,191.94055 286.42803,171.00728 288.95804,179.52121 C 290.15085,190.76512 291.40523,199.58762 293.25806,210.62122 C 295.09073,213.13142 294.40687,222.71348 296.10725,227.91379 C 296.60404,232.99568 295.52869,246.40645 298.85806,244.4212 C 303.89349,225.64933 299.92583,205.84706 303.75806,186.82121 C 303.94276,194.41061 304.56803,211.12199 305.55635,195.85507 C 305.07566,202.09276 308.24649,210.46255 309.55804,212.62122 C 312.09323,215.15788 309.37881,229.71707 311.45804,233.52121 C 314.50197,234.53158 312.36857,218.39809 313.14602,212.80139 C 313.29901,193.78568 313.19168,211.93272 313.73599,214.63846 C 315.05239,209.3264 314.46252,189.7858 314.98595,194.30527 C 315.82229,202.7603 315.471,183.4541 317.25806,179.4212 C 318.21112,182.92241 318.4203,197.38434 320.95804,186.4212 C 321.35009,177.86717 322.76928,169.4197 322.55804,160.82121 C 322.62176,175.90193 323.10485,168.47162 323.82027,158.33506 C 324.39634,145.89998 323.30057,147.9075 324.95804,155.92121 C 326.33574,146.80635 326.56549,142.53737 326.88874,148.72812 C 326.80805,136.6082 327.54213,138.23764 328.35806,127.12121 C 331.2402,123.7295 330.02284,115.3527 330.43693,107.10258 C 330.16515,90.56651 332.02304,116.32118 331.62094,97.96229 C 331.80512,81.2865 331.88164,104.36742 332.00587,109.83383 C 333.03218,121.66896 332.02365,136.41854 334.55804,146.42121 C 336.66301,142.69704 335.57998,130.11451 336.2107,123.14361 C 335.6454,119.69516 338.22317,101.96136 339.18587,112.81435 C 339.22901,123.55264 339.51465,130.67852 340.27459,119.64624 C 341.11796,121.25711 340.72996,95.34218 341.02592,106.40089 C 340.85984,110.73388 341.39341,129.7842 342.43344,124.33957 C 342.60367,122.76096 343.55227,138.7773 343.94718,144.19741 C 344.32148,153.35421 344.75035,157.56558 345.02484,152.11311 C 345.74953,176.33619 348.80133,200.79546 349.85806,224.62122 C 351.43406,204.99592 351.35188,185.27804 352.65805,165.62122 C 354.54981,157.42979 353.06552,188.52914 354.55804,172.12122 C 356.25197,162.13582 356.27022,151.95758 357.55804,141.92121 C 358.20155,156.23399 359.65012,133.48988 359.24916,128.76127 C 359.78911,120.19884 358.45007,107.8402 360.35806,107.92121 C 361.85296,119.82253 359.21258,132.50244 362.25806,144.12121 C 361.44945,134.47046 365.2422,144.69611 365.67955,140.23276 C 367.05951,135.36159 366.88851,117.71938 367.45804,121.62121 C 369.44663,132.47666 366.84875,144.9116 369.25806,155.92121 C 371.38768,144.21159 368.68822,131.94388 371.15805,120.32121 C 371.04528,129.19871 375.25094,135.99478 373.35524,135.33098 C 375.21479,123.263 374.531,155.70727 375.13752,141.64973 C 377.22151,138.61185 377.31565,135.30581 378.55804,136.12121 C 381.06482,137.19717 379.81901,128.19149 380.95804,123.72121 C 383.22465,134.74806 381.89515,146.21155 383.75806,157.32121 C 384.39894,154.70909 385.307,172.34673 385.15714,177.76675 C 384.80486,181.86426 386.38143,198.75142 387.44574,193.3483 C 388.62543,199.81765 393.70046,201.80055 391.75806,201.82121 C 391.52484,210.71411 395.75471,208.70952 394.44731,199.56281 C 394.37065,188.65805 396.80749,205.49412 397.25806,197.82121 C 398.48824,203.78631 396.97337,212.95023 399.75806,212.02121 C 401.22443,211.72158 402.04009,216.89063 402.317,227.20102 C 402.65169,235.91616 401.73915,244.8367 404.05804,253.22121 C 404.87323,240.53724 406.06222,262.15842 406.25806,266.62122 C 406.40949,257.45286 406.36336,246.90074 406.94885,241.64194 C 406.75543,227.05144 407.59501,236.98308 408.61124,240.49425 C 409.12479,236.65783 410.60021,225.88923 411.22592,219.44152 C 411.72425,211.09553 410.56589,197.95041 412.65805,213.02121 C 413.79816,226.42315 413.23391,207.5014 414.78557,205.84679 C 414.87175,208.0669 415.62043,222.46354 415.60596,229.37396 C 415.30089,247.06161 416.47024,230.91848 417.65805,242.22121 C 418.4361,247.77501 419.68917,268.094 419.85524,264.43097 C 420.00076,260.18365 424.20843,251.7498 423.83389,252.82974 C 425.2134,242.78917 425.32268,260.64994 427.15805,264.32121 C 428.52605,273.44268 427.64323,276.82184 429.32058,277.09646 C 431.33435,282.99016 432.05876,281.72731 432.65805,273.4212 C 433.48414,269.44211 434.57502,251.0524 435.43683,256.79497 C 437.69676,246.1949 435.94502,233.05885 439.15805,221.9212 C 439.65755,240.77925 438.5732,259.96889 440.05804,278.62122 C 440.14837,276.00639 441.30204,285.96327 442.55804,286.52121 C 442.14073,274.24706 444.01198,262.44084 444.65805,252.12122 C 446.94737,247.68931 447.34869,243.89108 447.45804,235.4212 C 449.35482,213.01351 446.96526,190.24698 449.05804,167.9212 C 450.15559,174.41022 450.19421,158.33076 450.29749,174.08811 C 449.92154,200.23613 451.16506,226.23493 451.75806,252.32121 C 452.04706,237.91629 451.8526,240.00418 453.05804,252.82121 C 453.01519,262.54449 453.70647,265.85781 454.55804,274.9212 C 455.10876,281.44719 455.87041,295.23159 457.00356,294.29428 C 460.17334,294.57629 458.95589,282.08233 459.25673,275.98753 C 459.32383,265.83209 459.39093,255.67665 459.45804,245.52121 C 462.19063,249.57304 460.31683,271.73888 461.22185,262.14401 C 462.48386,249.40788 460.6989,236.1833 463.15805,223.82121 C 463.30994,238.15471 464.79747,203.73384 465.6161,218.59398 C 465.76432,225.60235 467.00295,232.58955 468.35806,239.4212 C 468.64412,228.19599 470.92873,225.14817 470.54048,238.37119 C 471.18397,248.29061 469.3959,259.11932 473.05804,267.9212 C 472.86648,253.60142 474.81699,270.54859 475.08144,267.29965 C 475.71169,274.30474 476.4739,282.73259 478.25806,288.72122 C 480.76206,277.68639 478.56066,285.46858 480.75806,274.9212 C 481.39457,257.54187 482.07706,278.888 482.85806,274.4212 C 485.13948,252.59732 483.96139,230.54395 486.55804,208.72121 C 488.11053,215.87676 485.41307,227.29957 488.45804,232.12122 C 487.99152,219.55201 490.19045,220.9231 490.32691,227.0294 C 491.21143,222.38872 492.89896,207.48911 492.87874,208.80973 C 493.87377,213.13223 492.08149,231.95216 494.25806,226.52121 C 495.14355,212.69887 494.75838,238.81921 495.87956,235.43276 C 496.26602,228.66177 497.92163,248.64957 498.00568,252.81385 C 497.89681,257.2582 500.05604,278.30824 499.60023,265.0493 C 498.95705,250.04947 503.19008,267.47812 502.66703,269.23179 C 503.40091,264.63925 503.42005,290.42417 504.26703,280.31063 C 504.81421,284.47445 505.03972,305.36228 505.67377,298.32788 C 505.76852,289.32566 505.86328,280.32344 505.95804,271.32121 C 506.40185,283.25417 507.53568,280.43721 507.38361,291.47258 C 509.09139,321.09289 510.7402,350.75855 511.75806,380.4212 C 512.12138,371.70578 513.03883,379.50549 514.25806,368.62122 C 515.02445,373.15309 514.53133,386.56088 514.81406,394.5012 C 515.51992,399.71856 516.92807,401.13675 516.56465,411.80609 C 516.88609,425.26115 518.72775,407.3736 519.15805,415.9212 C 519.93352,408.65291 521.22389,392.55264 521.05807,408.72122 C 521.78761,392.63103 521.9825,410.05286 522.40567,394.14345 C 522.94303,379.64199 522.97712,365.12977 523.15805,350.62122 C 524.09141,361.25551 526.09181,339.91906 525.40808,335.66754 C 526.14914,315.2401 524.24008,294.60977 526.85806,274.32121 C 527.17217,291.92337 527.26049,278.50197 527.37512,268.69525 C 527.30707,254.67972 527.92327,274.93742 528.75803,279.52121 C 530.24571,300.93289 529.67321,322.40897 531.63685,343.78606 C 532.11388,355.99193 532.4151,368.19335 532.45804,380.4212 C 533.93434,372.00509 532.90938,363.09652 533.95804,354.8212 C 536.06124,350.74752 536.75444,350.74646 537.05807,342.62122 C 537.70512,333.43705 538.59855,324.30196 539.15805,315.12122 C 540.71144,315.8507 541.78225,306.28914 542.25803,316.12122 C 542.79641,330.58104 542.65142,345.05468 542.85806,359.52121 C 544.46274,354.99956 544.5085,377.2699 545.68023,372.72799 C 545.77331,367.80267 545.64911,346.17113 546.9714,360.20587 C 548.51359,372.63658 549.47245,385.3052 550.55807,397.8212 C 550.14439,383.37055 552.22278,391.74836 552.21544,385.9135 C 552.4409,396.35212 553.90303,402.76482 553.65805,388.3212 C 555.60292,375.92075 554.39233,410.96013 555.00444,390.85563 C 554.71533,383.2398 556.48951,372.47415 557.05807,375.72122 C 557.71736,368.36273 557.28779,390.80436 557.49512,395.81521 C 557.64316,408.384 557.43787,420.95949 557.95804,433.52121 C 558.04964,418.83803 560.32743,436.69912 560.04464,441.89189 C 560.7108,453.34424 562.32737,420.35738 562.37695,433.99983 C 562.49522,450.21234 563.02539,423.96287 564.15805,431.4212 C 565.75223,440.11942 566.30184,442.71397 566.29223,434.3477 C 566.58838,418.55496 566.06854,402.64008 566.85806,386.9212 C 568.05869,389.49657 568.01027,373.83076 569.05807,369.4212 C 569.83682,361.80861 571.95912,352.49043 571.9824,366.00542 C 572.10669,378.80274 573.89562,368.16392 574.25803,360.9212 C 575.16558,364.57076 574.5375,358.72767 575.81759,360.39188 C 577.10497,381.0759 578.32714,401.75824 579.55807,422.4212 C 581.32947,418.53432 581.66431,409.32267 582.12592,422.89826 C 582.66165,428.94037 583.15515,446.78857 583.55807,431.52121 C 585.55757,413.08391 585.33639,394.46146 587.25803,376.02121 C 587.92232,393.60974 587.60514,411.22251 587.85806,428.8212 C 588.64835,421.54264 590.30474,433.5438 590.21021,418.35292 C 591.28297,410.39853 591.47168,413.47061 592.87558,409.50998 C 594.30043,425.51 592.99798,403.90827 595.55807,407.8212 C 597.42408,388.03543 596.22273,368.078 596.75803,348.22122 C 598.58015,357.57798 599.65469,362.90861 599.70569,349.64345 C 600.40781,341.75786 602.67642,334.67271 602.45121,326.14036 C 603.45976,322.2426 603.63053,316.21665 604.25981,306.83613 C 604.68532,300.01436 604.21261,283.35823 605.91757,290.95053 C 607.34244,289.07213 607.99758,274.01942 608.55737,289.21131 C 608.7734,298.40587 609.89521,301.00929 610.52845,293.54668 C 610.49042,283.51187 611.79143,277.57575 612.52108,290.71329 C 613.3177,300.98463 613.48262,311.42368 614.25803,321.62122 C 614.22192,310.72996 615.65911,300.07689 617.65805,289.72122 C 617.75805,299.75455 617.85804,309.78787 617.95804,319.8212 C 618.28786,306.03931 619.23215,313.26797 620.15805,309.4212 C 622.10534,306.416 622.2459,326.2623 623.25803,309.4212 C 624.10336,317.48958 623.43103,325.88138 625.95804,333.52121 C 627.2807,323.4619 626.60785,313.25692 626.95804,303.12122 C 628.21259,311.44726 626.54819,322.29084 629.65805,329.02121 C 631.15184,318.1159 630.04868,307.03168 631.55807,296.12122 C 632.20483,311.38426 632.31688,294.24731 634.35806,288.52121 C 635.66623,304.01778 636.73434,275.30276 636.75605,287.29149 C 637.34947,279.71768 636.59159,269.94669 638.8512,280.90206 C 639.86705,289.84189 639.21859,298.93166 640.75803,307.8212 C 641.71892,298.12114 641.99243,320.18809 643.10188,310.33474 C 643.73353,298.40054 643.85795,299.88752 645.35806,310.8212 C 646.3389,324.79253 646.38216,319.01678 647.36702,327.11063 C 648.37866,334.39678 647.83536,312.14078 648.14476,307.02853 C 648.5335,311.11138 650.1392,285.83706 650.50407,299.79902 C 650.40856,308.25907 651.88017,295.55614 652.05243,289.54074 C 653.13538,281.50393 655.21572,300.0587 654.86348,285.35702 C 655.23201,281.09501 657.10474,261.3478 656.84256,271.20061 C 656.76229,286.74305 657.66662,279.6163 658.16447,268.4316 C 660.08905,264.3346 658.90311,243.00086 660.13327,255.98903 C 661.66082,258.66446 661.87235,265.98394 662.11014,252.12872 C 662.42258,244.17936 662.65399,236.2164 663.55807,228.32121 C 664.19554,238.98736 663.72478,213.01164 665.51715,221.50611 C 666.69248,211.81099 666.54389,225.13612 667.3512,233.2117 C 668.47475,240.41523 668.73321,220.13274 668.86859,216.03646 C 669.02121,204.29705 670.21604,230.15246 670.72586,218.01307 C 671.73148,231.89657 671.61875,245.83552 672.45804,259.72121 C 673.07212,254.39927 672.5216,262.55951 673.35806,263.52121"
         id="path4837"
         style="fill:none;stroke:#e60000;stroke-width:1;stroke-linecap:butt;stroke-linejoin:miter;stroke-opacity:1;display:inline" />
      <text
         x="76.27578"
         y="6.619545"
         id="text5971"
         xml:space="preserve"
         style="font-size:26.80491257px;font-style:normal;font-weight:normal;fill:#000000;fill-opacity:1;stroke:none;stroke-width:1px;stroke-linecap:butt;stroke-linejoin:miter;stroke-opacity:1;display:inline;font-family:Bitstream Vera Sans"><tspan
           x="76.27578"
           y="6.619545"
           id="tspan5973">Rekonstruierte Globaltemperatur (16–1980)</tspan></text>
      <text
         x="305.21841"
         y="21.93898"
         id="text5975"
         xml:space="preserve"
         style="font-size:10.50477505px;font-style:normal;font-weight:normal;fill:#000000;fill-opacity:1;stroke:none;stroke-width:1px;stroke-linecap:butt;stroke-linejoin:miter;stroke-opacity:1;display:inline;font-family:Bitstream Vera Sans"><tspan
           x="305.21841"
           y="21.93898"
           id="tspan5977"
           style="font-size:10.50477505px;font-family:Bitstream Vera Sans">nach Craig Loehle (2007)</tspan></text>
    </g>
  </g>
  <g
     id="layer1"
     style="display:inline" />
</svg>
